<?xml version="1.0" encoding="UTF-8"?>
<svg width="158px" height="38px" viewBox="0 0 158 38" version="1.1" xmlns="http://www.w3.org/2000/svg" xmlns:xlink="http://www.w3.org/1999/xlink">
    <title>logo</title>
    <g id="Ecommerce" stroke="none" stroke-width="1" fill="none" fill-rule="evenodd">
        <g id="ecommerce-home" transform="translate(-71.000000, -21.000000)" fill="#000000">
            <g id="dewalt-logo" transform="translate(71.000000, 21.000000)">
                <path d="M0.0266310549,0 L158,0 L158,2.97846649 L0.0266310549,2.97846649 L0.0266310549,0 Z M0.0266310549,35.021126 L157.879955,35.021126 L157.879955,38 L0.0266310549,38 L0.0266310549,35.021126 Z M133.993948,4.20628418 L157.963536,4.20628418 L157.963536,12.4073566 L151.467197,12.4073566 L151.467197,33.4664879 L140.467343,33.4664879 L140.467343,12.4073566 L133.993948,12.4073566 L133.993948,4.20628418 Z M117.511783,4.20628418 L117.511783,33.4664879 L137.484255,33.4664879 L137.484255,24.8253083 L128.49443,24.8253083 L128.49443,4.20628418 L117.511783,4.20628418 Z M95.0175552,4.46912601 L107.084701,4.46912601 L116.333052,33.4664879 L105.586806,33.4664879 L104.48551,29.0531903 L97.7478529,29.0531903 L96.7457058,33.4664879 L85.526657,33.4664879 L95.0175552,4.46912601 Z M99.2457473,22.6027668 L102.989664,22.6027668 L101.161544,14.1596354 L99.2457473,22.6027668 Z M89.2267348,4.46912601 L78.4915517,4.46912601 L75.4965823,18.6275389 L72.2488227,4.46912601 L62.7579245,4.46912601 L59.696992,18.6275389 L56.7683954,4.46912601 L46.0446842,4.46912601 L54.0598123,33.4664879 L64.0128617,33.4664879 L67.3601805,19.3178552 L70.7951768,33.4664879 L80.9907738,33.4664879 L89.2267348,4.46790349 L89.2267348,4.46912601 Z M30.239358,10.6770831 L46.2315113,10.6770831 L46.2315113,16.6454263 L38.4912976,16.6454263 L38.4912976,19.120622 L45.2297739,19.120622 L45.2297739,25.0885576 L38.4912976,25.0885576 L38.4912976,27.5637534 L46.2315113,27.5637534 L46.2315113,33.4664879 L30.239358,33.4664879 L30.239358,10.6770831 Z M0,33.4664879 L0,4.46912601 L13.6379681,4.46912601 C21.7034903,4.46912601 28.1170677,8.83759786 28.1170677,19.0260804 C28.1170677,28.943571 21.9075252,33.4668954 13.5863448,33.4668954 L0,33.4668954 L0,33.4664879 L0,33.4664879 Z M11.2551032,24.7825201 C14.713453,24.7825201 17.0012654,23.3366863 17.0012654,18.9327614 C17.0012654,14.0940268 14.7355772,12.8030456 11.2772275,12.8030456 L10.3930764,12.8030456 L10.3930764,24.7825201 L11.2551032,24.7825201 L11.2551032,24.7825201 Z M152.95321,30.8731153 C152.95321,29.5091903 154.06475,28.5042788 155.379094,28.5042788 C156.680739,28.5042788 157.792278,29.5104129 157.792278,30.8731153 C157.792278,32.2488579 156.680739,33.2545845 155.379094,33.2545845 C154.06434,33.2541769 152.95321,32.2488579 152.95321,30.8731153 Z M155.378685,32.8588954 C156.459086,32.8588954 157.312099,32.0169866 157.312099,30.8731153 C157.312099,29.7479893 156.459086,28.8995603 155.378685,28.8995603 C154.285582,28.8995603 153.432979,29.7479893 153.432979,30.8731153 C153.432979,32.0165791 154.285582,32.8588954 155.378685,32.8588954 Z M154.913256,31.1811903 L155.303298,31.1811903 L155.824448,32.0561072 L156.419754,32.0561072 L155.80683,31.1449223 C156.219407,31.0935764 156.501286,30.8421448 156.501286,30.3417265 C156.501286,29.9252547 156.171881,29.6135121 155.507743,29.6135121 L154.455202,29.6135121 L154.455202,32.0561072 L154.912436,32.0561072 L154.913256,31.1811903 L154.913256,31.1811903 Z M154.913256,30.7720587 L154.913256,29.9876032 L155.445058,29.9876032 C155.741277,29.9876032 156.076828,30.0071635 156.076828,30.366992 C156.076828,30.7781662 155.805191,30.7720587 155.444238,30.7720587 L154.913256,30.7720587 Z" id="Shape"></path>
            </g>
        </g>
    </g>
</svg>