<?xml version="1.0" encoding="UTF-8"?>
<svg width="28px" height="25px" viewBox="0 0 28 25" version="1.1" xmlns="http://www.w3.org/2000/svg" xmlns:xlink="http://www.w3.org/1999/xlink">
    <title>shopping-cart-icon</title>
    <g id="Ecommerce" stroke="none" stroke-width="1" fill="none" fill-rule="evenodd">
        <g id="ecommerce-home" transform="translate(-1342.000000, -27.000000)" fill="#FEBD17">
            <g id="cart" transform="translate(1182.000000, 27.000000)">
                <g id="shopping-cart-icon" transform="translate(160.000000, 0.000000)">
                    <path d="M0.913360326,4.27808988e-07 C0.408911418,4.27808988e-07 0,0.409498443 0,0.914636422 C0,1.4197744 0.408911418,1.82927199 0.913360326,1.82927199 L4.4336031,1.82927199 L7.57327922,16.6634932 C7.69749622,17.2219087 8.06296213,17.6866655 8.52469622,17.683022 L23.7473683,17.683022 C24.2298966,17.6896533 24.6737288,17.2515733 24.6737288,16.7683104 C24.6737288,16.2850475 24.2298966,15.8468456 23.7473683,15.8536748 L9.26680149,15.8536748 L8.87670529,14.0244037 L24.9651821,14.0244037 C25.3741239,14.0213549 25.7605058,13.7094337 25.8499847,13.3098599 L27.9811588,4.16349817 C28.0999261,3.63268332 27.639562,3.05268547 27.0963562,3.04878607 L6.56477719,3.04878607 L6.07004035,0.724087345 C5.98360601,0.317958667 5.59037395,-0.000425973467 5.17570836,4.27808988e-07 L0.913360326,4.27808988e-07 Z M6.94534399,4.8780572 L25.9451568,4.8780572 L24.2421052,12.1951326 L8.49613849,12.1951326 L6.94534399,4.8780572 Z M11.8736841,18.9024296 C10.2030567,18.9024296 8.82914966,20.2782244 8.82914966,21.9512148 C8.82914966,23.6241747 10.2030567,25 11.8736841,25 C13.5443115,25 14.9182185,23.6241747 14.9182185,21.9512148 C14.9182185,20.2782549 13.5443115,18.9024296 11.8736841,18.9024296 L11.8736841,18.9024296 Z M20.3983805,18.9024296 C18.7277531,18.9024296 17.353846,20.2782244 17.353846,21.9512148 C17.353846,23.6241747 18.7277531,25 20.3983805,25 C22.0690078,25 23.4429149,23.6241747 23.4429149,21.9512148 C23.4429149,20.2782549 22.0690078,18.9024296 20.3983805,18.9024296 L20.3983805,18.9024296 Z M11.8736841,20.7317007 C12.5570907,20.7317007 13.0914978,21.266854 13.0914978,21.9512148 C13.0914978,22.6355451 12.5570907,23.1707289 11.8736841,23.1707289 C11.1903383,23.1707289 10.6558703,22.6355451 10.6558703,21.9512148 C10.6558703,21.266854 11.1903383,20.7317007 11.8736841,20.7317007 Z M20.3983805,20.7317007 C21.0817871,20.7317007 21.6161942,21.266854 21.6161942,21.9512148 C21.6161942,22.6355451 21.0817871,23.1707289 20.3983805,23.1707289 C19.7150347,23.1707289 19.1805667,22.6355451 19.1805667,21.9512148 C19.1805667,21.266854 19.7150347,20.7317007 20.3983805,20.7317007 Z" id="Shape"></path>
                </g>
            </g>
        </g>
    </g>
</svg>